<svg xmlns="http://www.w3.org/2000/svg" width="32" height="32" version="1">
 <circle style="opacity:0.2;fill:#000000;fill-opacity:1" cx="16" cy="17" r="14"/>
 <circle style="fill:#db3c30" cx="16" cy="16" r="14"/>
 <path style="opacity:0.2;fill:#000000;fill-opacity:1" d="M 8.9289322,12.757291 13.171573,16.999932 8.9289322,21.242573 11.757359,24.071 16,19.828359 20.242641,24.071 23.071068,21.242573 18.828427,16.999932 23.071068,12.757291 20.242641,9.9288642 16,14.171505 11.757359,9.9288642 8.9289322,12.757291 Z"/>
 <path style="fill:#ffffff" d="M 8.9289322,11.757359 13.171573,16 8.9289322,20.242641 11.757359,23.071068 16,18.828427 20.242641,23.071068 23.071068,20.242641 18.828427,16 23.071068,11.757359 20.242641,8.9289322 16,13.171573 11.757359,8.9289322 8.9289322,11.757359 Z"/>
 <path style="fill:#ffffff;fill-opacity:1;opacity:0.1" d="M 16 2 A 14 14 0 0 0 2 16 A 14 14 0 0 0 2.0214844 16.585938 A 14 14 0 0 1 16 3 A 14 14 0 0 1 29.978516 16.414062 A 14 14 0 0 0 30 16 A 14 14 0 0 0 16 2 z"/>
</svg>
