<?xml version="1.0" encoding="UTF-8" standalone="no"?>
<svg
   xmlns:dc="http://purl.org/dc/elements/1.1/"
   xmlns:cc="http://creativecommons.org/ns#"
   xmlns:rdf="http://www.w3.org/1999/02/22-rdf-syntax-ns#"
   xmlns:svg="http://www.w3.org/2000/svg"
   xmlns="http://www.w3.org/2000/svg"
   xmlns:sodipodi="http://sodipodi.sourceforge.net/DTD/sodipodi-0.dtd"
   xmlns:inkscape="http://www.inkscape.org/namespaces/inkscape"
   width="32"
   height="32"
   version="1"
   id="svg2"
   inkscape:version="0.91 r13725"
   sodipodi:docname="Toolbar_Disconnect.svg">
  <metadata
     id="metadata30">
    <rdf:RDF>
      <cc:Work
         rdf:about="">
        <dc:format>image/svg+xml</dc:format>
        <dc:type
           rdf:resource="http://purl.org/dc/dcmitype/StillImage" />
        <dc:title></dc:title>
      </cc:Work>
    </rdf:RDF>
  </metadata>
  <defs
     id="defs28" />
  <sodipodi:namedview
     pagecolor="#ffffff"
     bordercolor="#666666"
     borderopacity="1"
     objecttolerance="10"
     gridtolerance="10"
     guidetolerance="10"
     inkscape:pageopacity="0"
     inkscape:pageshadow="2"
     inkscape:window-width="1920"
     inkscape:window-height="1024"
     id="namedview26"
     showgrid="false"
     inkscape:zoom="7.375"
     inkscape:cx="16"
     inkscape:cy="16"
     inkscape:window-x="0"
     inkscape:window-y="32"
     inkscape:window-maximized="1"
     inkscape:current-layer="svg2" />
  <path
     style="opacity:0.2"
     d="M 10,29 8,27 H 4 C 2.892,27 2,26.108 2,25 V 7 C 2,5.892 2.892,5 4,5 H 28 C 29.108,5 30,5.892 30,7 V 25 C 30,26.108 29.108,27 28,27 H 24 L 22,29 Z"
     id="path4" />
  <path
     style="fill:#b7b7b7"
     d="M 10,28 8,26 H 4 C 2.892,26 2,25.108 2,24 V 6 C 2,4.892 2.892,4 4,4 H 28 C 29.108,4 30,4.892 30,6 V 24 C 30,25.108 29.108,26 28,26 H 24 L 22,28 Z"
     id="path6" />
  <path
     style="opacity:0.5"
     d="M 12,24 10,22 H 6 V 8 H 26 V 22 H 22 L 20,24 Z"
     id="path8" />
  <g
     style="fill:#f8c44e"
     transform="scale(1,-1)"
     id="g10">
    <rect
       width="2"
       height="2"
       x="9"
       y="-10"
       id="rect12" />
    <rect
       width="2"
       height="2"
       x="12"
       y="-10"
       id="rect14" />
    <rect
       width="2"
       height="2"
       x="15"
       y="-10"
       id="rect16" />
    <rect
       width="2"
       height="2"
       x="18"
       y="-10"
       id="rect18" />
    <rect
       width="2"
       height="2"
       x="21"
       y="-10"
       id="rect20" />
  </g>
  <path
     style="fill:#ffffff;opacity:0.2"
     d="M 4 4 C 2.892 4 2 4.892 2 6 L 2 7 C 2 5.892 2.892 5 4 5 L 28 5 C 29.108 5 30 5.892 30 7 L 30 6 C 30 4.892 29.108 4 28 4 L 4 4 z"
     id="path22" />
  <path
     style="opacity:0.2;fill:#ffffff"
     d="M 6,22 V 23 H 10 L 12,25 H 20 L 22,23 H 26 V 22 H 22 L 20,24 H 12 L 10,22 Z"
     id="path24" />
  <g
     id="g16">
    <circle
       style="fill:#db3c30"
       cx="24"
       cy="24"
       r="7"
       id="circle18" />
    <path
       style="opacity:0.2"
       inkscape:connector-curvature="0"
       d="M 30.977,24.459 A 7,7 0 0 1 24,31 7,7 0 0 1 17.023,24.541 7,7 0 0 0 17,25 a 7,7 0 0 0 7,7 7,7 0 0 0 7,-7 7,7 0 0 0 -0.02344,-0.54102 z"
       id="path20" />
    <g
       style="fill:#ffffff"
       transform="matrix(0.70711,-0.70711,0.70711,0.70711,-9.9411,24)"
       id="g22">
      <rect
         width="8"
         height="2"
         x="20"
         y="23"
         id="rect24" />
      <rect
         width="8"
         height="2"
         x="20"
         y="-25"
         transform="matrix(0,1,-1,0,0,0)"
         id="rect26" />
    </g>
  </g>
</svg>
