<svg xmlns="http://www.w3.org/2000/svg" width="32" height="32" version="1">
 <rect style="fill:#5ca13c;fill-opacity:1" width="28" height="28" x="-30" y="-30" rx="14" ry="14" transform="matrix(0,-1,-1,0,0,0)"/>
 <path style="opacity:0.2" d="m 15.404,10.01 a 6.5,6.5 0 0 0 -4.5,1.9043 6.5,6.5 0 0 0 0,9.1914 6.5,6.5 0 0 0 8.002,0.93164 l 2.3223,2.3223 c 0.54843,0.54843 1.4612,0.51534 2.0488,-0.07227 0.5876,-0.5876 0.6207,-1.5023 0.07227,-2.0508 l -2.322,-2.321 a 6.5,6.5 0 0 0 -0.931,-8.002 6.5,6.5 0 0 0 -4.692,-1.904 z m 0.14648,3 a 3.5,3.5 0 0 1 2.4238,1.0254 3.5,3.5 0 0 1 0,4.9492 3.5,3.5 0 0 1 -4.9492,0 3.5,3.5 0 0 1 0,-4.9492 3.5,3.5 0 0 1 2.5254,-1.0254 z"/>
 <path style="fill:#ffffff;fill-opacity:1" d="m 10.903905,10.913785 a 6.5000296,6.5000296 0 0 0 0,9.19243 6.5000296,6.5000296 0 0 0 9.19243,0 6.5000296,6.5000296 0 0 0 0,-9.19243 6.5000296,6.5000296 0 0 0 -9.19243,0 z m 2.12133,2.12133 a 3.5000159,3.5000159 0 0 1 4.94977,0 3.5000159,3.5000159 0 0 1 0,4.94977 3.5000159,3.5000159 0 0 1 -4.94977,0 3.5000159,3.5000159 0 0 1 0,-4.94977 z"/>
 <rect style="fill:#ffffff;fill-opacity:1" width="3" height="7" x="-1.51" y="25.93" rx="1.5" ry="1.4" transform="matrix(0.70710678,-0.70710678,0.70710678,0.70710678,0,0)"/>
 <path style="opacity:0.2;fill:#ffffff" d="M 16,2 C 8.244,2 2,8.244 2,16 2,16.169 2.0195,16.333 2.0254,16.5 2.2891,8.9794 8.4128,3 16.0004,3 c 7.587,0 13.711,5.9794 13.975,13.5 0.005,-0.167 0.025,-0.331 0.025,-0.5 0,-7.756 -6.244,-14 -14,-14 z"/>
 <path style="opacity:0.2" d="M 2.0254,16.5 C 2.0195,16.667 2,16.831 2,17 c 0,7.756 6.244,14 14,14 7.756,0 14,-6.244 14,-14 0,-0.16884 -0.01952,-0.33264 -0.02539,-0.5 -0.264,7.521 -6.388,13.5 -13.975,13.5 -7.5872,0 -13.711,-5.979 -13.975,-13.5 z"/>
</svg>
