<?xml version="1.0" encoding="UTF-8" standalone="no"?>
<svg
   xmlns:dc="http://purl.org/dc/elements/1.1/"
   xmlns:cc="http://creativecommons.org/ns#"
   xmlns:rdf="http://www.w3.org/1999/02/22-rdf-syntax-ns#"
   xmlns:svg="http://www.w3.org/2000/svg"
   xmlns="http://www.w3.org/2000/svg"
   xmlns:sodipodi="http://sodipodi.sourceforge.net/DTD/sodipodi-0.dtd"
   xmlns:inkscape="http://www.inkscape.org/namespaces/inkscape"
   width="32"
   height="32"
   version="1"
   id="svg2"
   inkscape:version="0.91 r13725"
   sodipodi:docname="Toolbar_Connecting.svg">
  <metadata
     id="metadata30">
    <rdf:RDF>
      <cc:Work
         rdf:about="">
        <dc:format>image/svg+xml</dc:format>
        <dc:type
           rdf:resource="http://purl.org/dc/dcmitype/StillImage" />
        <dc:title />
      </cc:Work>
    </rdf:RDF>
  </metadata>
  <defs
     id="defs28" />
  <sodipodi:namedview
     pagecolor="#ffffff"
     bordercolor="#666666"
     borderopacity="1"
     objecttolerance="10"
     gridtolerance="10"
     guidetolerance="10"
     inkscape:pageopacity="0"
     inkscape:pageshadow="2"
     inkscape:window-width="1920"
     inkscape:window-height="1024"
     id="namedview26"
     showgrid="false"
     inkscape:zoom="19.46"
     inkscape:cx="18.017423"
     inkscape:cy="16"
     inkscape:window-x="0"
     inkscape:window-y="32"
     inkscape:window-maximized="1"
     inkscape:current-layer="svg2" />
  <circle
     style="opacity:0.2;fill:#000000;fill-opacity:1"
     cx="16"
     cy="17"
     r="14"
     id="circle4176" />
  <circle
     id="circle18"
     r="14"
     cy="16"
     cx="16"
     style="fill:#db3c30" />
  <g
     style="opacity:0.2;fill:#000000;fill-opacity:1"
     transform="matrix(1.4,-1.4,1.4,1.4,-51.2,17)"
     id="g4183" />
  <path
     inkscape:connector-curvature="0"
     id="path4146"
     d="M 8.9289322,12.757291 13.171573,16.999932 8.9289322,21.242573 11.757359,24.071 16,19.828359 20.242641,24.071 23.071068,21.242573 18.828427,16.999932 23.071068,12.757291 20.242641,9.9288642 16,14.171505 11.757359,9.9288642 8.9289322,12.757291 Z"
     style="opacity:0.2;fill:#000000;fill-opacity:1" />
  <path
     style="fill:#ffffff"
     d="M 8.9289322,11.757359 13.171573,16 8.9289322,20.242641 11.757359,23.071068 16,18.828427 20.242641,23.071068 23.071068,20.242641 18.828427,16 23.071068,11.757359 20.242641,8.9289322 16,13.171573 11.757359,8.9289322 8.9289322,11.757359 Z"
     id="rect26"
     inkscape:connector-curvature="0" />
  <path
     style="fill:#ffffff;fill-opacity:1;opacity:0.1"
     d="M 16 2 A 14 14 0 0 0 2 16 A 14 14 0 0 0 2.0214844 16.585938 A 14 14 0 0 1 16 3 A 14 14 0 0 1 29.978516 16.414062 A 14 14 0 0 0 30 16 A 14 14 0 0 0 16 2 z "
     id="circle4178" />
</svg>
