<?xml version="1.0" encoding="UTF-8" standalone="no"?>
<svg
   xmlns:dc="http://purl.org/dc/elements/1.1/"
   xmlns:cc="http://creativecommons.org/ns#"
   xmlns:rdf="http://www.w3.org/1999/02/22-rdf-syntax-ns#"
   xmlns:svg="http://www.w3.org/2000/svg"
   xmlns="http://www.w3.org/2000/svg"
   xmlns:sodipodi="http://sodipodi.sourceforge.net/DTD/sodipodi-0.dtd"
   xmlns:inkscape="http://www.inkscape.org/namespaces/inkscape"
   height="32"
   width="32"
   version="1"
   id="svg2"
   inkscape:version="0.91 r13725"
   sodipodi:docname="Toolbar_Shared.svg">
  <metadata
     id="metadata22">
    <rdf:RDF>
      <cc:Work
         rdf:about="">
        <dc:format>image/svg+xml</dc:format>
        <dc:type
           rdf:resource="http://purl.org/dc/dcmitype/StillImage" />
      </cc:Work>
    </rdf:RDF>
  </metadata>
  <defs
     id="defs20" />
  <sodipodi:namedview
     pagecolor="#ffffff"
     bordercolor="#666666"
     borderopacity="1"
     objecttolerance="10"
     gridtolerance="10"
     guidetolerance="10"
     inkscape:pageopacity="0"
     inkscape:pageshadow="2"
     inkscape:window-width="1920"
     inkscape:window-height="1024"
     id="namedview18"
     showgrid="false"
     inkscape:zoom="7.375"
     inkscape:cx="16"
     inkscape:cy="16"
     inkscape:window-x="0"
     inkscape:window-y="32"
     inkscape:window-maximized="1"
     inkscape:current-layer="svg2" />
  <rect
     ry="14"
     rx="14"
     transform="matrix(0,-1,-1,0,0,0)"
     height="28"
     width="28"
     y="-30"
     x="-30"
     fill="#e81d62"
     id="rect4"
     style="fill:#c4416e;fill-opacity:1" />
  <g
     opacity=".2"
     style="enable-background:new"
     transform="translate(-617,-519)"
     id="g6">
    <path
       d="m636 528c-1.6568 0-3 1.3432-3 3 0 0.23127 0.0442 0.44001 0.0937 0.65625l-3.2188 2c-0.51-0.42-1.16-0.66-1.87-0.66-1.6568 0-3 1.3432-3 3s1.3432 3 3 3c0.70904 0 1.3615-0.24498 1.875-0.65625l3.2188 2c-0.06 0.22-0.1 0.43-0.1 0.66 0 1.6568 1.3432 3 3 3s3-1.3432 3-3-1.3432-3-3-3c-0.70904 0-1.3615 0.24498-1.875 0.65625l-3.2188-2c0.0495-0.21624 0.0937-0.42498 0.0937-0.65625s-0.0442-0.44001-0.0937-0.65625l3.2188-2c0.52 0.41 1.17 0.65 1.88 0.65 1.6568 0 3-1.3432 3-3s-1.3432-3-3-3z"
       id="path8" />
  </g>
  <g
     style="enable-background:new"
     fill="#fff"
     transform="translate(-617 -520)"
     id="g10">
    <path
       d="m636 528c-1.6568 0-3 1.3432-3 3 0 0.23127 0.0442 0.44001 0.0937 0.65625l-3.2188 2c-0.51341-0.41127-1.1659-0.65625-1.875-0.65625-1.6568 0-3 1.3432-3 3s1.3432 3 3 3c0.70904 0 1.3615-0.24498 1.875-0.65625l3.2188 2c-0.0495 0.21624-0.0937 0.42498-0.0937 0.65625 0 1.6568 1.3432 3 3 3s3-1.3432 3-3-1.3432-3-3-3c-0.70904 0-1.3615 0.24498-1.875 0.65625l-3.2188-2c0.0495-0.21624 0.0937-0.42498 0.0937-0.65625s-0.0442-0.44001-0.0937-0.65625l3.2188-2c0.51341 0.41127 1.1659 0.65625 1.875 0.65625 1.6568 0 3-1.3432 3-3s-1.3432-3-3-3z"
       id="path12" />
  </g>
  <path
     opacity=".1"
     fill="#fff"
     d="m16 2c-7.756 0-14 6.244-14 14 0 0.16884 0.01952 0.33264 0.02539 0.5 0.2641-7.5206 6.3878-13.5 13.975-13.5s13.711 5.9794 13.975 13.5c0.006-0.16736 0.0254-0.33116 0.0254-0.5 0-7.756-6.244-14-14-14z"
     id="path14" />
  <path
     opacity=".2"
     d="m2.0254 16.5c-0.0059 0.167-0.0254 0.331-0.0254 0.5 0 7.756 6.244 14 14 14s14-6.244 14-14c0-0.16884-0.01952-0.33264-0.02539-0.5-0.264 7.521-6.388 13.5-13.975 13.5-7.5872 0-13.711-5.979-13.975-13.5z"
     id="path16" />
</svg>
