<svg xmlns="http://www.w3.org/2000/svg" width="32" height="32" version="1">
 <path style="opacity:0.2;fill:#000000;fill-opacity:1;enable-background:new" d="m 28.0001,31 -4.2353,-4 -17.647,0 c -1.174,0 -2.118,-0.937 -2.118,-2.1 l 0,-19.8 c 0,-1.1634 0.944,-2.1 2.118,-2.1 l 19.764,0 c 1.1735,0 2.118,0.9366 2.118,2.1 l 0,25.9 z"/>
 <path style="fill:#fe9700;fill-opacity:1;enable-background:new" d="m 28.0001,30 -4.2353,-4 -17.647,0 c -1.174,0 -2.118,-0.937 -2.118,-2.1 l 0,-19.8 c 0,-1.1634 0.944,-2.1 2.118,-2.1 l 19.764,0 c 1.1735,0 2.118,0.9366 2.118,2.1 l 0,25.9 z"/>
 <path style="fill:#ffffff" d="m 20.3801,7.9942 c 0.0012,-0.00133 0.0025,-0.00238 0.005,-0.00497 0.0012,-0.00126 0.0066,-0.00651 0.0066,-0.00658 l 0.01162,-0.00824 0.03487,-0.018109 -0.05811,0.03787 z"/>
 <path style="fill:#ffffff" d="m 23.2037,8.8653 c 0.0025,0.00364 0.0036,0.015491 0.0066,0.023051 0.0024,0.00287 0.0026,0.00539 0.005,0.00824 -0.0029,-0.011473 -0.0068,-0.023289 -0.0066,-0.023051 3.19e-4,5.796e-4 -0.009,-0.014259 -0.005,-0.00824 z"/>
 <path style="opacity:0.2;fill:#ffffff;enable-background:new" d="m 25.8829,2 c 1.1732,0 2.1172,0.9362 2.1172,2.0996 l 0,1 C 28.0001,3.9362 27.0561,3 25.8829,3 L 6.1169,3 c -1.173,0 -2.117,0.9362 -2.117,2.0996 l 0,-1 C 3.9999,2.9362 4.9439,2 6.1169,2 l 19.766,0 z"/>
 <path style="fill:#ffffff;enable-background:new" d="m 10,9 0,1 12,0 0,-1 z m 0,3 0,1 12,0 0,-1 z m 0,3 0,1 12,0 0,-1 z m 0,3 0,1 8.727273,0 0,-1 z"/>
 <path style="opacity:0.2;fill:#000000;fill-opacity:1;enable-background:new" d="m 10,10 0,1 12,0 0,-1 z m 0,3 0,1 12,0 0,-1 z m 0,3 0,1 12,0 0,-1 z m 0,3 0,1 8.727273,0 0,-1 z"/>
</svg>
